<svg xmlns="http://www.w3.org/2000/svg" width="35" height="35"><g fill="none" fill-rule="evenodd"><path fill="#3EE9E5" d="M16 0c7.971 0 14.581 5.83 15.8 13.457A12.948 12.948 0 0135 21.97 13 13 0 0122.01 35a12.95 12.95 0 01-8.553-3.2C5.829 30.58 0 23.97 0 16 0 7.163 7.163 0 16 0zm5.977 9C14.8 9.013 8.99 14.84 9 22.016a12.97 12.97 0 004.457 9.783 16.126 16.126 0 003.846.149A11 11 0 0122.01 11a11.011 11.011 0 019.937 6.305C31.319 25.1 25.1 31.319 17.303 31.948a11.002 11.002 0 0014.644-14.643 16.117 16.117 0 00-.148-3.847A12.97 12.97 0 0021.977 9z"/></g></svg>